<svg width="22" height="16" viewBox="0 0 22 16" fill="none" xmlns="http://www.w3.org/2000/svg">
<path d="M0.333344 1.33333C0.333344 0.979711 0.47382 0.640573 0.723868 0.390525C0.973917 0.140476 1.31305 0 1.66668 0H20.3333C20.687 0 21.0261 0.140476 21.2762 0.390525C21.5262 0.640573 21.6667 0.979711 21.6667 1.33333C21.6667 1.68696 21.5262 2.02609 21.2762 2.27614C21.0261 2.52619 20.687 2.66667 20.3333 2.66667H1.66668C1.31305 2.66667 0.973917 2.52619 0.723868 2.27614C0.47382 2.02609 0.333344 1.68696 0.333344 1.33333ZM0.333344 8C0.333344 7.64638 0.47382 7.30724 0.723868 7.05719C0.973917 6.80714 1.31305 6.66667 1.66668 6.66667H20.3333C20.687 6.66667 21.0261 6.80714 21.2762 7.05719C21.5262 7.30724 21.6667 7.64638 21.6667 8C21.6667 8.35362 21.5262 8.69276 21.2762 8.94281C21.0261 9.19286 20.687 9.33333 20.3333 9.33333H1.66668C1.31305 9.33333 0.973917 9.19286 0.723868 8.94281C0.47382 8.69276 0.333344 8.35362 0.333344 8ZM0.333344 14.6667C0.333344 14.313 0.47382 13.9739 0.723868 13.7239C0.973917 13.4738 1.31305 13.3333 1.66668 13.3333H20.3333C20.687 13.3333 21.0261 13.4738 21.2762 13.7239C21.5262 13.9739 21.6667 14.313 21.6667 14.6667C21.6667 15.0203 21.5262 15.3594 21.2762 15.6095C21.0261 15.8595 20.687 16 20.3333 16H1.66668C1.31305 16 0.973917 15.8595 0.723868 15.6095C0.47382 15.3594 0.333344 15.0203 0.333344 14.6667Z" fill="white"/>
</svg>
