<svg width="225" height="476" viewBox="0 0 225 476" fill="none" xmlns="http://www.w3.org/2000/svg">
<g filter="url(#filter0_d_1798_10226)">
<path fill-rule="evenodd" clip-rule="evenodd" d="M168.821 64.0917C175.943 51.4872 182.963 39.0619 189.939 26L198.76 30.7111C191.592 44.1317 184.468 56.7385 177.293 69.4369C160.736 98.7405 143.902 128.532 125.61 169.938C99.4478 229.161 70.4048 311.997 35.6983 450.074L26 447.637C60.7935 309.214 90.0005 225.8 116.463 165.898C134.96 124.026 152.168 93.5691 168.821 64.0917Z" fill="white"/>
<path fill-rule="evenodd" clip-rule="evenodd" d="M168.821 64.0917C175.943 51.4872 182.963 39.0619 189.939 26L198.76 30.7111C191.592 44.1317 184.468 56.7385 177.293 69.4369C160.736 98.7405 143.902 128.532 125.61 169.938C99.4478 229.161 70.4048 311.997 35.6983 450.074L26 447.637C60.7935 309.214 90.0005 225.8 116.463 165.898C134.96 124.026 152.168 93.5691 168.821 64.0917Z" stroke="#7059FF"/>
</g>
<defs>
<filter id="filter0_d_1798_10226" x="0.393188" y="0.323425" width="224.043" height="475.358" filterUnits="userSpaceOnUse" color-interpolation-filters="sRGB">
<feFlood flood-opacity="0" result="BackgroundImageFix"/>
<feColorMatrix in="SourceAlpha" type="matrix" values="0 0 0 0 0 0 0 0 0 0 0 0 0 0 0 0 0 0 127 0" result="hardAlpha"/>
<feOffset/>
<feGaussianBlur stdDeviation="12.5"/>
<feComposite in2="hardAlpha" operator="out"/>
<feColorMatrix type="matrix" values="0 0 0 0 0.439216 0 0 0 0 0.34902 0 0 0 0 1 0 0 0 0.25 0"/>
<feBlend mode="normal" in2="BackgroundImageFix" result="effect1_dropShadow_1798_10226"/>
<feBlend mode="normal" in="SourceGraphic" in2="effect1_dropShadow_1798_10226" result="shape"/>
</filter>
</defs>
</svg>
